<svg id="Layer_1" data-name="Layer 1" xmlns="http://www.w3.org/2000/svg" width="750" height="245.83" viewBox="0 0 750 245.83"><defs><style>.cls-1{fill:#00a082;}.cls-2{fill:#ffcc1b;}</style></defs><title>glovo_logo</title><g id="layer1"><g id="g66"><path id="path45" class="cls-1" d="M0,412v-.46c0-46.72,35.73-86.26,86.12-86.26,25,0,41.68,5.95,56.95,16.94a14.84,14.84,0,0,1,6,11.91,14.5,14.5,0,0,1-14.49,14.51h0a15,15,0,0,1-9-3.36c-10.69-7.79-22.44-13.13-40.46-13.13-30.85,0-54.21,27-54.21,58.93v.46c0,34.36,22.6,59.7,56.8,59.7,15.73,0,30.08-5,40.31-12.67v-31.3H95a12.76,12.76,0,1,1,0-25.5h46.57a14.54,14.54,0,0,1,14.81,14.81v44.58c0,8.4-3.36,14.36-10.23,18.63a105.82,105.82,0,0,1-59.39,18.18C34.36,497.76,0,460.5,0,412m182.46-78a14.24,14.24,0,0,1,14.13-14.35h.22a14.37,14.37,0,0,1,14.51,14.35v147.8a14.43,14.43,0,0,1-28.86.22v-148Zm51.3,98.78v-.45c0-36,28.56-65.81,67.19-65.81s67,29.32,67,65.35v.46c0,35.73-28.56,65.65-67.49,65.65-38.33-.15-66.73-29.47-66.73-65.2m105.36,0v-.45c0-22.14-16-40.62-38.63-40.62-23.21,0-37.87,18.17-37.87,40v.46c0,22,16,40.31,38.33,40.31,23.36.15,38.17-18,38.17-39.71M440,497.3h-1.37c-7.94,0-13.13-5-16.49-12.67l-42-96a21.6,21.6,0,0,1-1.68-7.18c0-7.17,6.42-13.89,14.36-13.89s11.9,4.58,14.35,10.53l32.37,83.52,33-84c2.13-5,5.95-10.08,13.59-10.08a13.68,13.68,0,0,1,14,13.89,16,16,0,0,1-1.68,6.87l-42,96.35C453.17,492.11,448,497.3,440,497.3m70.7-64.59v-.45c0-36,28.55-65.81,67.18-65.81s67,29.32,67,65.35v.46c0,35.73-28.55,65.65-67.49,65.65-38.48-.15-66.72-29.46-66.72-65.19m105.35,0v-.46c0-22.14-16-40.62-38.63-40.62-23.21,0-37.86,18.17-37.86,40v.46c0,22,16,40.31,38.47,40.31,23.21.15,38-18,38-39.7" transform="translate(0 -252.08)"/><path id="path47" class="cls-2" d="M693.2,252.09a56.62,56.62,0,0,0-56.65,56.64,55.64,55.64,0,0,0,10.69,33l1.53,2.14,29.46,41.69a13.9,13.9,0,0,0,11.46,5.95h7.17a13.9,13.9,0,0,0,11.46-5.95l29.46-41.69,1.53-2.14a55.9,55.9,0,0,0,10.69-33,56.86,56.86,0,0,0-56.8-56.66m23.36,73.45L715,327.66l-21.68,30.69-21.83-30.69L670,325.37a29,29,0,0,1-5.5-16.79,28.68,28.68,0,0,1,28.64-28.71h.07a28.68,28.68,0,0,1,28.7,28.64v.07a29.4,29.4,0,0,1-5.34,16.95M677.32,417a15.49,15.49,0,0,1,15.73-15.58,15.26,15.26,0,0,1,15.72,15.42V417a15.73,15.73,0,0,1-31.45,0" transform="translate(0 -252.08)"/></g></g></svg>